<svg xmlns="http://www.w3.org/2000/svg" id="Capa_1" version="1.1" viewBox="0 0 800 800"><circle cx="400" cy="400" r="393.1"/><path d="M630.5 331.3c-6.5-74.9-50.8-144-112.9-185.3-34-22.7-73.5-36.6-113.9-41.9-111.6-14.5-229.1 34.5-271.1 144.1-36.2 94.2-.5 187.7 64.3 259.1 23.4 25.7 26.6 74.1 26.6 106.7v66.1c0 10.2 8.2 18.4 18.4 18.4h239.2c9.7 0 17.7-7.5 18.3-17.2.9-13 2.3-24.4 2.3-24.4 5-21.5 23.3-38.7 62.2-32.4 40.8 6.5 66.5-5.6 68.8-32.8.8-9 1.2-85.5 1.2-85.5 1.9-1.1 14.7-3.7 33.4-7.9 14.5-3.3 19.6-21.3 9-31.8-42.4-41.9-48.1-61.5-49.1-65.7-5.2-20.9 5.2-47.5 3.3-69.5m-79-25.1c-5.9 7.5-12.6 8.9-16.1 9.1-1.2 0-2 1.2-1.7 2.3 1.8 6.4 3.7 24.1-28 31-29.7 6.5-47.6 29.5-59.4 41.3-9 9-21.2 13.2-33.3 15.9-12.4 2.8-24.7 5.2-34.5 14.1-10.3 9.3-24.9 60.5-27.3 69.3-.2.8-.9 1.3-1.7 1.3h-15.2c-.9 0-1.6-.6-1.8-1.4l-7.4-34.9c-.3-1.5-71.9 4.4-77.4-27.5-.2-1.1-1.3-1.8-2.4-1.4-6.9 2.5-29 8.6-40.9-9.9-8.4-13.1-6.2-25.3-5-29.5.2-.9-.2-1.8-1-2.1-6.1-2.6-28-14.9-25-55.4 2.4-32.6 24.5-47.1 21.4-52.1-8.9-14.5-1.2-38.5 17.1-43.8.7-.2 1.3-.9 1.3-1.6l.8-8.5c2.5-30 41.9-49 68.7-36.5 1 .5 2.3 0 2.6-1.1 3.4-10.6 10.1-13.6 11.9-14.6 8.3-4.7 19.1-4.1 27.7-.6.7.3 1.5.1 2-.4 2.4-2.6 12.4-10.9 29-10.9s25.6 8.3 28.6 10.6c.6.4 1.3.5 1.9.2 3.8-2 17.8-8.2 31.7-3.4 10.6 3.6 16.5 13.2 18.4 16.7.4.7 1.2 1.1 2.1.9 5-1.2 22.3-4.5 36.9 2.1 15.4 7 20.2 17 21.4 20.4.2.7.9 1.1 1.6 1.2 3.3.1 12.5.9 18.2 5.7 10 8.4 9.1 15.1 7.9 18-.4.9 0 1.9.9 2.3 4.6 2.2 17.4 9.7 25.4 25.5 11 21.7 6.6 40.4.6 48.1Z" style="fill:#fff"/></svg>